<svg width="24" height="24" viewBox="0 0 24 24" fill="none" xmlns="http://www.w3.org/2000/svg">
<circle cx="12" cy="12" r="12" fill="#FFECB4"/>
<path d="M10.75 12.8751C10.75 13.3601 11.125 13.7501 11.585 13.7501H12.525C12.925 13.7501 13.25 13.4101 13.25 12.9851C13.25 12.5301 13.05 12.3651 12.755 12.2601L11.25 11.7351C10.955 11.6301 10.755 11.4701 10.755 11.0101C10.755 10.5901 11.08 10.2451 11.48 10.2451H12.42C12.88 10.2451 13.255 10.6351 13.255 11.1201" stroke="#292929" stroke-width="0.75" stroke-linecap="round" stroke-linejoin="round"/>
<path d="M12 9.75V14.25" stroke="#292929" stroke-width="0.75" stroke-linecap="round" stroke-linejoin="round"/>
<path d="M17 12C17 14.76 14.76 17 12 17C9.24 17 7 14.76 7 12C7 9.24 9.24 7 12 7" stroke="#292929" stroke-width="0.75" stroke-linecap="round" stroke-linejoin="round"/>
<path d="M17 9V7H15" stroke="#292929" stroke-width="0.75" stroke-linecap="round" stroke-linejoin="round"/>
<path d="M14.5 9.5L17 7" stroke="#292929" stroke-width="0.75" stroke-linecap="round" stroke-linejoin="round"/>
</svg>
