<svg width="24" height="24" viewBox="0 0 24 24" fill="none" xmlns="http://www.w3.org/2000/svg">
<rect width="24" height="24" rx="2.66667" fill="#01063D"/>
<path d="M17.3334 8.66665V15.3333C17.3334 18 16.6667 18.6666 14 18.6666H10C7.33335 18.6666 6.66669 18 6.66669 15.3333V8.66665C6.66669 5.99998 7.33335 5.33331 10 5.33331H14C16.6667 5.33331 17.3334 5.99998 17.3334 8.66665Z" stroke="white" stroke-linecap="round" stroke-linejoin="round"/>
<path d="M13.3334 7.66669H10.6667" stroke="white" stroke-linecap="round" stroke-linejoin="round"/>
<path d="M12 16.7334C12.5707 16.7334 13.0333 16.2707 13.0333 15.7C13.0333 15.1293 12.5707 14.6667 12 14.6667C11.4293 14.6667 10.9667 15.1293 10.9667 15.7C10.9667 16.2707 11.4293 16.7334 12 16.7334Z" stroke="white" stroke-linecap="round" stroke-linejoin="round"/>
</svg>
