<svg width="25" height="24" viewBox="0 0 25 24" fill="none" xmlns="http://www.w3.org/2000/svg">
<rect width="24.5654" height="24" rx="2.66667" fill="#01063D"/>
<path d="M13.4684 5.33337C14.662 5.33337 15.6933 5.55324 16.5623 5.99297C17.4313 6.43271 18.0909 7.05043 18.5411 7.84613C19.0017 8.63137 19.2321 9.54748 19.2321 10.5945C19.2321 11.4321 19.0855 12.233 18.7923 12.9973C18.5097 13.7616 18.0961 14.3845 17.5517 14.8662C17.0177 15.3478 16.3843 15.5886 15.6514 15.5886C15.1174 15.5886 14.6986 15.4734 14.395 15.2431C14.0914 15.0023 13.9029 14.6672 13.8296 14.238C13.5051 14.6568 13.0968 14.9866 12.6047 15.2274C12.1126 15.4682 11.5996 15.5886 11.0656 15.5886C10.2594 15.5886 9.62601 15.3478 9.16533 14.8662C8.71513 14.3741 8.49003 13.7092 8.49003 12.8717C8.49003 12.0759 8.65231 11.3326 8.97688 10.6416C9.31191 9.95057 9.77782 9.4009 10.3746 8.99258C10.9714 8.57379 11.6414 8.36439 12.3848 8.36439C13.2957 8.36439 13.9343 8.67325 14.3008 9.29097L14.4421 8.50573H15.9969L15.2117 12.9973C15.1803 13.2172 15.1645 13.4109 15.1645 13.5784C15.1645 13.8506 15.2169 14.0547 15.3216 14.1909C15.4368 14.327 15.6357 14.395 15.9184 14.395C16.3162 14.395 16.6565 14.2013 16.9392 13.8139C17.2219 13.4161 17.4313 12.9292 17.5674 12.3534C17.714 11.7776 17.7872 11.2174 17.7872 10.673C17.7872 9.34332 17.3999 8.32775 16.6251 7.62627C15.8503 6.92479 14.7248 6.57405 13.2486 6.57405C12.0131 6.57405 10.9033 6.8672 9.91916 7.45351C8.94547 8.03983 8.18117 8.846 7.62627 9.87205C7.07137 10.8981 6.79392 12.0393 6.79392 13.2957C6.79392 14.6358 7.19177 15.6566 7.98748 16.3581C8.78318 17.0596 9.91916 17.4103 11.3954 17.4103C12.39 17.4103 13.259 17.2271 14.0024 16.8607L14.238 18.0542C13.2852 18.4625 12.2173 18.6667 11.0342 18.6667C9.89299 18.6667 8.89312 18.4521 8.03459 18.0228C7.17606 17.5935 6.51123 16.9811 6.04009 16.1854C5.56895 15.4001 5.33337 14.484 5.33337 13.437C5.33337 11.9398 5.67888 10.5735 6.36989 9.33808C7.07137 8.10264 8.03983 7.12895 9.27527 6.417C10.5107 5.69458 11.9084 5.33337 13.4684 5.33337ZM11.6153 14.2066C12.055 14.2066 12.4529 14.0809 12.8088 13.8296C13.1753 13.5679 13.4632 13.2276 13.6726 12.8088C13.882 12.3796 13.9867 11.9241 13.9867 11.4425C13.9867 10.94 13.8454 10.5316 13.5627 10.2176C13.2904 9.89299 12.9031 9.7307 12.4005 9.7307C11.9503 9.7307 11.5525 9.87205 11.207 10.1547C10.8719 10.4269 10.6102 10.7829 10.4217 11.2227C10.2437 11.6624 10.1547 12.1231 10.1547 12.6047C10.1547 13.0968 10.2751 13.4894 10.5159 13.7825C10.7567 14.0652 11.1232 14.2066 11.6153 14.2066Z" fill="white"/>
</svg>
