<svg width="24" height="24" viewBox="0 0 24 24" fill="none" xmlns="http://www.w3.org/2000/svg">
<rect width="24" height="24" rx="2.66667" fill="#01063D"/>
<path d="M11.444 6.44446H10.3329C7.55508 6.44446 6.44397 7.55557 6.44397 10.3333V13.6667C6.44397 16.4445 7.55508 17.5556 10.3329 17.5556H13.6662C16.444 17.5556 17.5551 16.4445 17.5551 13.6667V12.5556" stroke="white" stroke-width="0.833333" stroke-linecap="round" stroke-linejoin="round"/>
<path d="M14.245 7.01111L9.86725 11.3889C9.70058 11.5556 9.53392 11.8833 9.50058 12.1222L9.26169 13.7944C9.17281 14.4 9.60058 14.8222 10.2061 14.7389L11.8784 14.5C12.1117 14.4667 12.4395 14.3 12.6117 14.1333L16.9895 9.75555C17.745 9 18.1006 8.12222 16.9895 7.01111C15.8784 5.9 15.0006 6.25555 14.245 7.01111Z" stroke="white" stroke-width="0.833333" stroke-miterlimit="10" stroke-linecap="round" stroke-linejoin="round"/>
<path d="M13.6172 7.63892C13.9894 8.96669 15.0283 10.0056 16.3616 10.3834" stroke="white" stroke-width="0.833333" stroke-miterlimit="10" stroke-linecap="round" stroke-linejoin="round"/>
</svg>
