<svg width="44" height="44" viewBox="0 0 44 44" fill="none" xmlns="http://www.w3.org/2000/svg">
<rect opacity="0.8" x="0.5" y="0.5" width="43" height="43" rx="21.5" fill="white" stroke="#C3D4E9"/>
<circle cx="36.5" cy="7.5" r="5.5" fill="#FF4423"/>
<path d="M22.02 12.9102C18.71 12.9102 16.02 15.6002 16.02 18.9102V21.8002C16.02 22.4102 15.76 23.3402 15.45 23.8602L14.3 25.7702C13.59 26.9502 14.08 28.2602 15.38 28.7002C19.69 30.1402 24.34 30.1402 28.65 28.7002C29.86 28.3002 30.39 26.8702 29.73 25.7702L28.58 23.8602C28.28 23.3402 28.02 22.4102 28.02 21.8002V18.9102C28.02 15.6102 25.32 12.9102 22.02 12.9102Z" stroke="#292D32" stroke-width="1.5" stroke-miterlimit="10" stroke-linecap="round"/>
<path d="M23.87 13.2004C23.56 13.1104 23.24 13.0404 22.91 13.0004C21.95 12.8804 21.03 12.9504 20.17 13.2004C20.46 12.4604 21.18 11.9404 22.02 11.9404C22.86 11.9404 23.58 12.4604 23.87 13.2004Z" stroke="#292D32" stroke-width="1.5" stroke-miterlimit="10" stroke-linecap="round" stroke-linejoin="round"/>
<path d="M25.02 29.0596C25.02 30.7096 23.67 32.0596 22.02 32.0596C21.2 32.0596 20.44 31.7196 19.9 31.1796C19.36 30.6396 19.02 29.8796 19.02 29.0596" stroke="#292D32" stroke-width="1.5" stroke-miterlimit="10"/>
</svg>
